{"title":"Going.Away.[Un.Beau.Dimanche].2014.DVDRip.x264.HORiZON-ArtSubs","uid":10570063,"size":1673775203,"categoryP":"video","categoryS":"movies","magnet":"?xt=urn:btih:b40b526e77281c600946580faf6a16463fe48793&amp;dn=Going.Away.%5BUn.Beau.Dimanche%5D.2014.DVDRip.x264.HORiZON-ArtSubs&amp;tr=udp%3A%2F%2Ftracker.openbittorrent.com%3A80&amp;tr=udp%3A%2F%2Fopen.demonii.com%3A1337&amp;tr=udp%3A%2F%2Ftracker.coppersurfer.tk%3A6969&amp;tr=udp%3A%2F%2Fexodus.desync.com%3A6969","seeders":8,"leechers":3,"uploader":"lletaif","files":1,"time":1405564826,"description":"Title:\nUn Beau Dimanche Aka Going Away\n\n\nCountry:\nFrance, 2014\n\n\nLanguage:\nFrench\n\n\nSubtitle:\nNo subtitle\n\n\nIMDB: &lt;a href=&quot;\nhttp://www.imdb.com/title/tt2289526/?ref_=fn_al_tt_9&quot; rel=&quot;nofollow&quot; target=&quot;_NEW&quot;&gt;\nhttp://www.imdb.com/title/tt2289526/?ref_=fn_al_tt_9&lt;/a&gt;\n\n\nSynopsis:\nBaptiste is a solitary type. A teacher in southern France, he never stays more than three weeks in the same job. One Friday, he finds himself in charge of Mathias, one of his pupils, who hasn't been picked up after school. Mathias takes the boy to his mother, Sandra. She's a beautiful woman who has led a bit of a wild life and who now works on a beach near Montpellier. Within a day, the trio have formed a bond, like the beginnings of a family for these three people who don't have one. But the magic doesn't last. Sandra owes money and if she doesn't pay up something dire could happen. She must hit the road, flee once again. To help Sandra, Baptiste must take a look back at the origins of his own life, at the most painful and secret parts of himself. New film from director  Nicole Garcia.\n\n\nMedia Info:\n\nGeneral\nUnique ID                                : 273556814427228928750684761191376123338 (0xCDCD2044229224CE8145342236EA75CA)\nComplete name                            : Going.Away.[Un.Beau.Dimanche].2014.DVDRip.x264.HORiZON-ArtSubs.mkv\nFormat                                   : Matroska\nFormat version                           : Version 2\nFile size                                : 1.56 GiB\nDuration                                 : 1h 31mn\nOverall bit rate                         : 2 443 Kbps\nWriting application                      : HandBrake 0.9.5\nWriting library                          : libmkv 0.6.4.1\n\nVideo\nID                                       : 1\nFormat                                   : AVC\nFormat/Info                              : Advanced Video Codec\nFormat profile                           : &lt;a class=&quot;__cf_email__&quot; href=&quot;/cdn-cgi/l/email-protection&quot; data-cfemail=&quot;135b7a747b535f203d23&quot;&gt;[email&amp;#160;protected]&lt;/a&gt;&lt;script cf-hash='f9e31' type=&quot;text/javascript&quot;&gt;\n/* &lt;![CDATA[ */!function(){try{var t=&quot;currentScript&quot;in document?document.currentScript:function(){for(var t=document.getElementsByTagName(&quot;script&quot;),e=t.length;e--;)if(t[e].getAttribute(&quot;cf-hash&quot;))return t[e]}();if(t&amp;&amp;t.previousSibling){var e,r,n,i,c=t.previousSibling,a=c.getAttribute(&quot;data-cfemail&quot;);if(a){for(e=&quot;&quot;,r=parseInt(a.substr(0,2),16),n=2;a.length-n;n+=2)i=parseInt(a.substr(n,2),16)^r,e+=String.fromCharCode(i);e=document.createTextNode(e),c.parentNode.replaceChild(e,c)}}}catch(u){}}();/* ]]&gt; */&lt;/script&gt;\nFormat settings, CABAC                   : Yes\nFormat settings, ReFrames                : 4 frames\nCodec ID                                 : V_MPEG4/ISO/AVC\nDuration                                 : 1h 31mn\nBit rate                                 : 1 997 Kbps\nWidth                                    : 720 pixels\nHeight                                   : 544 pixels\nDisplay aspect ratio                     : 1.85:1\nFrame rate mode                          : Constant\nFrame rate                               : 25.000 fps\nColor space                              : YUV\nChroma subsampling                       : 4:2:0\nBit depth                                : 8 bits\nScan type                                : Progressive\nBits/(Pixel*Frame)                       : 0.204\nStream size                              : 1.24 GiB (80%)\nWriting library                          : x264 core 112\nEncoding settings                        : cabac=1 / ref=3 / deblock=1:0:0 / analyse=0x3:0x113 / me=hex / subme=7 / psy=1 / psy_rd=1.00:0.00 / mixed_ref=1 / me_range=16 / chroma_me=1 / trellis=1 / 8x8dct=1 / cqm=0 / deadzone=21,11 / fast_pskip=1 / chroma_qp_offset=-2 / threads=6 / sliced_threads=0 / nr=0 / decimate=1 / interlaced=0 / constrained_intra=0 / bframes=3 / b_pyramid=2 / b_adapt=2 / b_bias=0 / direct=1 / weightb=1 / open_gop=0 / weightp=2 / keyint=250 / keyint_min=25 / scenecut=40 / intra_refresh=0 / rc_lookahead=50 / rc=abr / mbtree=1 / bitrate=1997 / ratetol=1.0 / qcomp=0.60 / qpmin=3 / qpmax=51 / qpstep=4 / ip_ratio=1.40 / aq=1:1.00\nLanguage                                 : English\nDefault                                  : Yes\nForced                                   : No\nColor primaries                          : BT.601 NTSC\nTransfer characteristics                 : BT.709\nMatrix coefficients                      : BT.601\n\nAudio\nID                                       : 2\nFormat                                   : AC-3\nFormat/Info                              : Audio Coding 3\nMode extension                           : CM (complete main)\nFormat settings, Endianness              : Big\nCodec ID                                 : A_AC3\nDuration                                 : 1h 31mn\nBit rate mode                            : Constant\nBit rate                                 : 448 Kbps\nChannel(s)                               : 6 channels\nChannel positions                        : Front: L C R, Side: L R, LFE\nSampling rate                            : 48.0 KHz\nBit depth                                : 16 bits\nCompression mode                         : Lossy\nStream size                              : 293 MiB (18%)\nLanguage                                 : French\nDefault                                  : Yes\nForced                                   : No\n\nMenu\n00:00:00.000                             : Chapter 1\n00:07:15.360                             : Chapter 2\n00:16:53.280                             : Chapter 3\n00:24:25.920                             : Chapter 4\n00:33:33.120                             : Chapter 5\n00:40:13.440                             : Chapter 6\n00:48:36.960                             : Chapter 7\n00:56:48.480                             : Chapter 8\n01:05:23.040                             : Chapter 9\n01:13:59.520                             : Chapter 10\n01:22:36.960                             : Chapter 11\n01:28:34.080                             : Chapter 12\n01:31:20.560                             : Chapter 13\n\n","torrent":{"xt":"urn:btih:b40b526e77281c600946580faf6a16463fe48793","amp;dn":"Going.Away.%5BUn.Beau.Dimanche%5D.2014.DVDRip.x264.HORiZON-ArtSubs","amp;tr":["udp%3A%2F%2Ftracker.openbittorrent.com%3A80","udp%3A%2F%2Fopen.demonii.com%3A1337","udp%3A%2F%2Ftracker.coppersurfer.tk%3A6969","udp%3A%2F%2Fexodus.desync.com%3A6969"],"infoHash":"b40b526e77281c600946580faf6a16463fe48793","infoHashBuffer":{"type":"Buffer","data":[180,11,82,110,119,40,28,96,9,70,88,15,175,106,22,70,63,228,135,147]},"announce":[],"urlList":[]}}